<svg xmlns="http://www.w3.org/2000/svg" xmlns:xlink="http://www.w3.org/1999/xlink" width="500" zoomAndPan="magnify" viewBox="0 0 375 374.999991" height="500" preserveAspectRatio="xMidYMid meet" version="1.0"><defs><g/><clipPath id="db471bf564"><path d="M 50 58 L 318 58 L 318 325 L 50 325 Z M 50 58 " clip-rule="nonzero"/></clipPath><clipPath id="06cdad48af"><path d="M 188.445312 1.929688 L 334.148438 154.199219 L 140.148438 339.824219 L -5.550781 187.554688 Z M 188.445312 1.929688 " clip-rule="nonzero"/></clipPath><clipPath id="1a9b46b370"><path d="M 188.445312 1.929688 L 374.074219 195.925781 L 180.074219 381.550781 L -5.550781 187.554688 Z M 188.445312 1.929688 " clip-rule="nonzero"/></clipPath><clipPath id="c5a7cfb377"><path d="M 243.648438 211.566406 L 257.148438 211.566406 L 257.148438 225.066406 L 243.648438 225.066406 Z M 243.648438 211.566406 " clip-rule="nonzero"/></clipPath></defs><rect x="-37.5" width="450" fill="#ffffff" y="-37.499999" height="449.999989" fill-opacity="1"/><rect x="-37.5" width="450" fill="#ffffff" y="-37.499999" height="449.999989" fill-opacity="1"/><rect x="-37.5" width="450" fill="#fee715" y="-37.499999" height="449.999989" fill-opacity="1"/><g clip-path="url(#db471bf564)"><g clip-path="url(#06cdad48af)"><g clip-path="url(#1a9b46b370)"><path fill="#000000" d="M 245.46875 307.484375 C 234.742188 313.039062 223.203125 316.882812 211.429688 319.222656 C 201.792969 321.074219 192.011719 322.054688 182.21875 322.007812 C 180.914062 322.039062 179.613281 321.921875 178.3125 321.875 C 177.011719 321.804688 175.707031 321.777344 174.40625 321.675781 L 170.515625 321.320312 L 168.566406 321.140625 L 166.632812 320.878906 L 162.757812 320.359375 C 161.46875 320.15625 160.191406 319.902344 158.90625 319.679688 C 156.328125 319.28125 153.800781 318.652344 151.246094 318.105469 C 150.878906 318.027344 150.496094 317.941406 150.09375 317.855469 C 149.699219 317.746094 149.289062 317.632812 148.859375 317.519531 C 148.003906 317.28125 147.082031 317.027344 146.105469 316.757812 C 144.128906 316.261719 141.984375 315.492188 139.613281 314.710938 C 139.027344 314.507812 138.417969 314.324219 137.808594 314.09375 C 137.203125 313.859375 136.589844 313.617188 135.960938 313.371094 C 134.707031 312.878906 133.40625 312.367188 132.0625 311.839844 C 129.453125 310.625 126.609375 309.476562 123.792969 307.945312 C 112.3125 302.265625 99.96875 293.269531 89.496094 282.414062 C 79.113281 271.472656 70.671875 258.746094 65.5 247.027344 C 64.097656 244.144531 63.074219 241.253906 61.976562 238.589844 C 61.507812 237.226562 61.054688 235.90625 60.617188 234.632812 C 60.402344 233.992188 60.1875 233.367188 59.976562 232.753906 C 59.773438 232.136719 59.617188 231.519531 59.441406 230.921875 C 58.761719 228.523438 58.089844 226.34375 57.679688 224.347656 C 57.453125 223.359375 57.242188 222.425781 57.046875 221.5625 C 56.945312 221.128906 56.851562 220.714844 56.761719 220.3125 C 56.691406 219.910156 56.625 219.519531 56.5625 219.152344 C 54.777344 209.519531 53.859375 199.738281 53.972656 189.945312 C 54.199219 179.515625 55.703125 169.144531 58.097656 158.980469 C 60.953125 147.316406 65.304688 135.960938 71.324219 125.488281 C 77.222656 114.941406 84.847656 105.378906 93.535156 96.921875 C 102.367188 88.617188 112.257812 81.417969 123.054688 75.996094 C 133.78125 70.441406 145.316406 66.597656 157.09375 64.253906 C 166.726562 62.40625 176.507812 61.425781 186.300781 61.472656 C 187.605469 61.441406 188.90625 61.554688 190.210938 61.601562 C 191.511719 61.671875 192.816406 61.703125 194.113281 61.800781 L 198.007812 62.160156 L 199.953125 62.335938 L 201.890625 62.601562 L 205.765625 63.121094 C 207.050781 63.324219 208.328125 63.578125 209.613281 63.796875 C 212.191406 64.199219 214.722656 64.828125 217.273438 65.371094 C 217.640625 65.453125 218.023438 65.539062 218.425781 65.625 C 218.820312 65.734375 219.234375 65.84375 219.660156 65.960938 C 220.515625 66.195312 221.4375 66.449219 222.417969 66.722656 C 224.390625 67.21875 226.539062 67.988281 228.90625 68.765625 C 229.496094 68.96875 230.105469 69.15625 230.710938 69.386719 C 231.316406 69.621094 231.933594 69.863281 232.5625 70.109375 C 233.816406 70.601562 235.117188 71.113281 236.457031 71.640625 C 239.070312 72.851562 241.914062 74.003906 244.726562 75.53125 C 256.210938 81.214844 268.550781 90.210938 279.027344 101.066406 C 289.40625 112.007812 297.847656 124.734375 303.019531 136.453125 C 304.421875 139.335938 305.445312 142.222656 306.542969 144.890625 C 307.011719 146.25 307.464844 147.574219 307.902344 148.847656 C 308.121094 149.484375 308.335938 150.113281 308.542969 150.726562 C 308.746094 151.34375 308.902344 151.960938 309.082031 152.558594 C 309.757812 154.957031 310.429688 157.136719 310.839844 159.128906 C 311.066406 160.121094 311.277344 161.050781 311.476562 161.917969 C 311.574219 162.347656 311.667969 162.765625 311.757812 163.167969 C 311.828125 163.570312 311.894531 163.957031 311.960938 164.328125 C 313.746094 173.960938 314.660156 183.742188 314.546875 193.535156 C 314.324219 203.964844 312.816406 214.335938 310.421875 224.5 C 307.566406 236.164062 303.214844 247.519531 297.195312 257.992188 C 291.300781 268.535156 283.671875 278.101562 274.988281 286.558594 C 266.15625 294.863281 256.265625 302.058594 245.46875 307.484375 Z M 277.136719 288.675781 L 277.144531 288.667969 C 286.011719 280.03125 293.808594 270.265625 299.847656 259.492188 C 306.011719 248.796875 310.460938 237.183594 313.347656 225.261719 L 314.601562 219.652344 C 314.601562 219.652344 314.898438 218.097656 315.335938 215.765625 C 315.84375 213.445312 316.191406 210.296875 316.652344 207.167969 C 316.917969 204.015625 317.296875 200.875 317.335938 198.503906 C 317.441406 196.132812 317.507812 194.554688 317.507812 194.554688 C 317.507812 194.554688 317.519531 194.160156 317.523438 193.46875 C 317.523438 192.777344 317.53125 191.789062 317.535156 190.605469 C 317.609375 188.230469 317.417969 185.078125 317.292969 181.917969 C 317.179688 180.34375 317.015625 178.769531 316.890625 177.292969 C 316.820312 176.554688 316.757812 175.84375 316.695312 175.167969 C 316.601562 174.496094 316.511719 173.859375 316.429688 173.269531 C 316.105469 170.921875 315.886719 169.355469 315.886719 169.355469 C 315.886719 169.355469 315.855469 169 315.753906 168.46875 C 315.660156 167.941406 315.539062 167.234375 315.414062 166.527344 C 315.167969 165.113281 314.917969 163.699219 314.917969 163.699219 C 314.855469 163.320312 314.785156 162.925781 314.714844 162.511719 C 314.625 162.101562 314.53125 161.675781 314.429688 161.230469 C 314.230469 160.34375 314.015625 159.390625 313.785156 158.378906 C 313.371094 156.335938 312.6875 154.105469 311.996094 151.648438 C 311.816406 151.039062 311.652344 150.40625 311.449219 149.773438 C 311.234375 149.144531 311.015625 148.503906 310.796875 147.851562 C 310.347656 146.542969 309.886719 145.191406 309.410156 143.792969 C 308.289062 141.066406 307.242188 138.109375 305.808594 135.160156 C 300.523438 123.15625 291.886719 110.121094 281.257812 98.925781 C 270.546875 87.816406 257.902344 78.613281 246.144531 72.804688 C 243.261719 71.242188 240.351562 70.0625 237.675781 68.828125 C 236.300781 68.289062 234.972656 67.765625 233.683594 67.261719 C 233.042969 67.011719 232.410156 66.765625 231.792969 66.523438 C 231.171875 66.292969 230.546875 66.101562 229.941406 65.894531 C 227.519531 65.097656 225.320312 64.316406 223.300781 63.8125 C 222.296875 63.535156 221.355469 63.28125 220.476562 63.039062 C 220.039062 62.921875 219.617188 62.808594 219.210938 62.699219 C 218.800781 62.609375 218.40625 62.523438 218.03125 62.445312 C 218.03125 62.445312 216.632812 62.132812 215.230469 61.824219 C 214.527344 61.671875 213.828125 61.515625 213.304688 61.398438 C 212.78125 61.273438 212.425781 61.230469 212.425781 61.230469 C 212.425781 61.230469 210.871094 60.941406 208.539062 60.511719 C 207.953125 60.40625 207.324219 60.289062 206.65625 60.164062 C 205.984375 60.074219 205.273438 59.976562 204.539062 59.878906 C 203.070312 59.683594 201.507812 59.449219 199.9375 59.269531 C 196.785156 59.007812 193.644531 58.675781 191.269531 58.644531 C 190.085938 58.597656 189.097656 58.558594 188.40625 58.53125 C 187.71875 58.503906 187.320312 58.5 187.320312 58.5 C 187.320312 58.5 185.742188 58.496094 183.371094 58.496094 C 181 58.429688 177.84375 58.671875 174.683594 58.796875 C 171.539062 59.121094 168.378906 59.328125 166.035156 59.730469 C 163.6875 60.070312 162.121094 60.292969 162.121094 60.292969 L 156.464844 61.300781 C 144.421875 63.65625 132.625 67.59375 121.667969 73.277344 C 110.640625 78.835938 100.542969 86.195312 91.519531 94.675781 L 91.511719 94.679688 L 91.449219 94.742188 L 91.382812 94.804688 L 91.378906 94.8125 C 82.511719 103.449219 74.710938 113.214844 68.671875 123.984375 C 62.511719 134.683594 58.058594 146.292969 55.175781 158.21875 L 53.917969 163.828125 C 53.917969 163.828125 53.625 165.382812 53.183594 167.714844 C 52.679688 170.035156 52.332031 173.183594 51.871094 176.3125 C 51.605469 179.464844 51.222656 182.605469 51.183594 184.976562 C 51.082031 187.34375 51.011719 188.925781 51.011719 188.925781 C 51.011719 188.925781 51 189.320312 51 190.011719 C 50.996094 190.703125 50.988281 191.6875 50.984375 192.875 C 50.910156 195.246094 51.105469 198.402344 51.230469 201.5625 C 51.339844 203.136719 51.503906 204.707031 51.632812 206.183594 C 51.699219 206.921875 51.765625 207.636719 51.828125 208.3125 C 51.921875 208.984375 52.007812 209.621094 52.089844 210.207031 C 52.417969 212.558594 52.636719 214.121094 52.636719 214.121094 C 52.636719 214.121094 52.664062 214.480469 52.765625 215.007812 C 52.859375 215.539062 52.984375 216.246094 53.105469 216.953125 C 53.355469 218.367188 53.601562 219.78125 53.601562 219.78125 C 53.667969 220.15625 53.734375 220.554688 53.804688 220.96875 C 53.894531 221.378906 53.992188 221.804688 54.089844 222.25 C 54.289062 223.136719 54.507812 224.085938 54.734375 225.101562 C 55.152344 227.140625 55.835938 229.375 56.523438 231.832031 C 56.703125 232.441406 56.867188 233.074219 57.074219 233.707031 C 57.285156 234.335938 57.503906 234.976562 57.726562 235.628906 C 58.171875 236.933594 58.636719 238.289062 59.113281 239.683594 C 60.230469 242.414062 61.28125 245.371094 62.710938 248.320312 C 68 260.320312 76.636719 273.359375 87.261719 284.554688 C 97.976562 295.660156 110.621094 304.863281 122.378906 310.675781 C 125.261719 312.234375 128.171875 313.414062 130.847656 314.652344 C 132.21875 315.191406 133.550781 315.714844 134.835938 316.214844 C 135.480469 316.46875 136.109375 316.714844 136.730469 316.953125 C 137.351562 317.1875 137.976562 317.378906 138.578125 317.585938 C 141.003906 318.382812 143.203125 319.164062 145.222656 319.667969 C 146.226562 319.941406 147.167969 320.199219 148.042969 320.4375 C 148.480469 320.558594 148.90625 320.671875 149.308594 320.78125 C 149.722656 320.867188 150.113281 320.953125 150.488281 321.035156 C 150.488281 321.035156 151.890625 321.34375 153.292969 321.65625 C 153.992188 321.808594 154.691406 321.964844 155.21875 322.078125 C 155.738281 322.203125 156.097656 322.25 156.097656 322.25 C 156.097656 322.25 157.652344 322.535156 159.984375 322.964844 C 160.566406 323.074219 161.199219 323.191406 161.863281 323.3125 C 162.539062 323.40625 163.246094 323.503906 163.980469 323.601562 C 165.453125 323.792969 167.015625 324.027344 168.585938 324.210938 C 171.734375 324.472656 174.878906 324.804688 177.25 324.835938 C 178.433594 324.882812 179.421875 324.921875 180.113281 324.949219 C 180.804688 324.976562 181.199219 324.980469 181.199219 324.980469 C 181.199219 324.980469 182.78125 324.980469 185.148438 324.984375 C 187.523438 325.050781 190.675781 324.808594 193.835938 324.679688 C 196.984375 324.359375 200.144531 324.152344 202.484375 323.75 C 204.835938 323.410156 206.398438 323.183594 206.398438 323.183594 L 212.058594 322.179688 C 224.097656 319.824219 235.894531 315.886719 246.851562 310.203125 C 257.878906 304.644531 267.980469 297.28125 277 288.804688 L 277.007812 288.800781 L 277.074219 288.738281 L 277.136719 288.675781 " fill-opacity="1" fill-rule="nonzero"/></g></g></g><g fill="#195190" fill-opacity="1"><g transform="translate(127.103784, 303.5887)"><g><path d="M 15.359375 -4.125 L 11.625 -6.21875 L 6.21875 3.46875 L 3.96875 2.21875 L 9.375 -7.46875 L 5.640625 -9.5625 L 6.75 -11.5625 L 16.46875 -6.125 Z M 15.359375 -4.125 "/></g></g></g><g fill="#195190" fill-opacity="1"><g transform="translate(145.242047, 312.942665)"><g><path d="M 16.296875 -8.546875 L 11.953125 4.109375 L 9.515625 3.265625 L 11.375 -2.125 L 5.640625 -4.09375 L 3.78125 1.296875 L 1.3125 0.453125 L 5.65625 -12.203125 L 8.125 -11.359375 L 6.375 -6.234375 L 12.109375 -4.265625 L 13.859375 -9.390625 Z M 16.296875 -8.546875 "/></g></g></g><g fill="#195190" fill-opacity="1"><g transform="translate(167.034505, 319.489587)"><g><path d="M 10.90625 -0.609375 L 10.5625 1.640625 L 1.375 0.21875 L 3.4375 -13 L 12.453125 -11.59375 L 12.09375 -9.34375 L 5.65625 -10.359375 L 5.171875 -7.171875 L 10.734375 -6.296875 L 10.40625 -4.21875 L 4.84375 -5.09375 L 4.296875 -1.640625 Z M 10.90625 -0.609375 "/></g></g></g><g fill="#195190" fill-opacity="1"><g transform="translate(186.664119, 321.743899)"><g/></g></g><g fill="#195190" fill-opacity="1"><g transform="translate(199.727329, 321.723279)"><g><path d="M 6.703125 -3.078125 C 7.316406 -3.160156 7.816406 -3.347656 8.203125 -3.640625 C 8.585938 -3.941406 8.878906 -4.3125 9.078125 -4.75 C 9.285156 -5.1875 9.410156 -5.671875 9.453125 -6.203125 C 9.492188 -6.734375 9.484375 -7.273438 9.421875 -7.828125 L 8.546875 -14.578125 L 11.09375 -14.90625 L 11.96875 -8.15625 C 12.082031 -7.238281 12.082031 -6.367188 11.96875 -5.546875 C 11.863281 -4.722656 11.609375 -3.976562 11.203125 -3.3125 C 10.804688 -2.65625 10.265625 -2.101562 9.578125 -1.65625 C 8.898438 -1.21875 8.046875 -0.929688 7.015625 -0.796875 C 5.960938 -0.660156 5.039062 -0.726562 4.25 -1 C 3.457031 -1.269531 2.789062 -1.679688 2.25 -2.234375 C 1.71875 -2.785156 1.296875 -3.441406 0.984375 -4.203125 C 0.671875 -4.972656 0.460938 -5.796875 0.359375 -6.671875 L -0.515625 -13.421875 L 2.078125 -13.75 L 2.953125 -7 C 3.023438 -6.425781 3.144531 -5.890625 3.3125 -5.390625 C 3.476562 -4.890625 3.710938 -4.453125 4.015625 -4.078125 C 4.328125 -3.710938 4.703125 -3.4375 5.140625 -3.25 C 5.585938 -3.0625 6.109375 -3.003906 6.703125 -3.078125 Z M 6.703125 -3.078125 "/></g></g></g><g fill="#195190" fill-opacity="1"><g transform="translate(222.376457, 317.990011)"><g><path d="M 1.125 -9.40625 L 3.796875 -1.25 L 1.328125 -0.4375 L -2.84375 -13.140625 L -0.9375 -13.765625 L 8.4375 -7.609375 L 5.703125 -15.9375 L 8.15625 -16.734375 L 12.328125 -4.046875 L 10.328125 -3.390625 Z M 1.125 -9.40625 "/></g></g></g><g fill="#195190" fill-opacity="1"><g transform="translate(243.819875, 309.898789)"><g><path d="M 1.234375 -0.625 L -4.8125 -12.546875 L -2.484375 -13.734375 L 3.5625 -1.8125 Z M 1.234375 -0.625 "/></g></g></g><g fill="#195190" fill-opacity="1"><g transform="translate(256.019878, 303.287105)"><g><path d="M 2.984375 -15.625 L -0.515625 -13.171875 L 5.84375 -4.078125 L 3.734375 -2.609375 L -2.625 -11.703125 L -6.140625 -9.25 L -7.4375 -11.125 L 1.6875 -17.5 Z M 2.984375 -15.625 "/></g></g></g><g fill="#195190" fill-opacity="1"><g transform="translate(272.28888, 291.05759)"><g><path d="M -7.34375 -11.546875 L -0.46875 -9.28125 L -2.625 -16.21875 L -0.625 -18.203125 L 2.046875 -8.59375 L 5.328125 -5.28125 L 3.5 -3.46875 L 0.1875 -6.8125 L -9.34375 -9.5625 Z M -7.34375 -11.546875 "/></g></g></g><g fill="#195190" fill-opacity="1"><g transform="translate(286.513792, 275.745983)"><g/></g></g><g fill="#195190" fill-opacity="1"><g transform="translate(294.111102, 265.212613)"><g><path d="M 0.6875 -1.21875 L -10.96875 -7.796875 L -8.1875 -12.734375 C -7.882812 -13.265625 -7.492188 -13.691406 -7.015625 -14.015625 C -6.535156 -14.347656 -6.015625 -14.578125 -5.453125 -14.703125 C -4.898438 -14.828125 -4.335938 -14.847656 -3.765625 -14.765625 C -3.203125 -14.679688 -2.6875 -14.507812 -2.21875 -14.25 C -1.71875 -13.96875 -1.285156 -13.609375 -0.921875 -13.171875 C -0.554688 -12.734375 -0.28125 -12.253906 -0.09375 -11.734375 C 0.0820312 -11.210938 0.148438 -10.664062 0.109375 -10.09375 C 0.078125 -9.519531 -0.0859375 -8.96875 -0.390625 -8.4375 L -1.9375 -5.6875 L 1.96875 -3.484375 Z M -3.921875 -6.8125 L -2.4375 -9.4375 C -2.207031 -9.84375 -2.179688 -10.28125 -2.359375 -10.75 C -2.546875 -11.226562 -2.929688 -11.628906 -3.515625 -11.953125 C -3.804688 -12.117188 -4.09375 -12.222656 -4.375 -12.265625 C -4.65625 -12.316406 -4.921875 -12.316406 -5.171875 -12.265625 C -5.421875 -12.210938 -5.632812 -12.113281 -5.8125 -11.96875 C -6 -11.820312 -6.148438 -11.648438 -6.265625 -11.453125 L -7.6875 -8.9375 Z M -3.921875 -6.8125 "/></g></g></g><g fill="#195190" fill-opacity="1"><g transform="translate(303.526318, 247.077709)"><g><path d="M 0.46875 -1.3125 L -12.125 -5.796875 L -10.140625 -11.375 C -9.929688 -11.945312 -9.617188 -12.4375 -9.203125 -12.84375 C -8.796875 -13.257812 -8.332031 -13.570312 -7.8125 -13.78125 C -7.289062 -14 -6.738281 -14.113281 -6.15625 -14.125 C -5.582031 -14.144531 -5.046875 -14.066406 -4.546875 -13.890625 C -3.722656 -13.597656 -3.050781 -13.128906 -2.53125 -12.484375 C -2.007812 -11.835938 -1.71875 -11.113281 -1.65625 -10.3125 L 4.09375 -11.5 L 3.125 -8.765625 L -2.015625 -7.6875 L -2.875 -5.265625 L 1.34375 -3.765625 Z M -5.03125 -6.03125 L -3.9375 -9.09375 C -3.863281 -9.320312 -3.84375 -9.550781 -3.875 -9.78125 C -3.914062 -10.019531 -4 -10.242188 -4.125 -10.453125 C -4.257812 -10.660156 -4.4375 -10.847656 -4.65625 -11.015625 C -4.882812 -11.191406 -5.140625 -11.332031 -5.421875 -11.4375 C -5.710938 -11.539062 -5.992188 -11.585938 -6.265625 -11.578125 C -6.546875 -11.578125 -6.804688 -11.523438 -7.046875 -11.421875 C -7.296875 -11.328125 -7.503906 -11.191406 -7.671875 -11.015625 C -7.847656 -10.847656 -7.976562 -10.660156 -8.0625 -10.453125 L -9.109375 -7.484375 Z M -5.03125 -6.03125 "/></g></g></g><g fill="#195190" fill-opacity="1"><g transform="translate(309.986008, 226.776953)"><g><path d="M 1.21875 -7 C 1.0625 -6.03125 0.726562 -5.179688 0.21875 -4.453125 C -0.28125 -3.722656 -0.882812 -3.128906 -1.59375 -2.671875 C -2.3125 -2.210938 -3.097656 -1.890625 -3.953125 -1.703125 C -4.816406 -1.523438 -5.671875 -1.503906 -6.515625 -1.640625 C -7.390625 -1.785156 -8.203125 -2.085938 -8.953125 -2.546875 C -9.710938 -3.003906 -10.351562 -3.566406 -10.875 -4.234375 C -11.40625 -4.910156 -11.789062 -5.675781 -12.03125 -6.53125 C -12.269531 -7.382812 -12.3125 -8.273438 -12.15625 -9.203125 C -12.007812 -10.160156 -11.675781 -11 -11.15625 -11.71875 C -10.632812 -12.445312 -10.015625 -13.039062 -9.296875 -13.5 C -8.578125 -13.957031 -7.789062 -14.273438 -6.9375 -14.453125 C -6.082031 -14.640625 -5.238281 -14.664062 -4.40625 -14.53125 C -3.519531 -14.382812 -2.703125 -14.082031 -1.953125 -13.625 C -1.210938 -13.175781 -0.578125 -12.613281 -0.046875 -11.9375 C 0.472656 -11.269531 0.851562 -10.507812 1.09375 -9.65625 C 1.332031 -8.8125 1.375 -7.925781 1.21875 -7 Z M -6.09375 -4.234375 C -5.519531 -4.140625 -4.953125 -4.140625 -4.390625 -4.234375 C -3.835938 -4.328125 -3.328125 -4.503906 -2.859375 -4.765625 C -2.398438 -5.023438 -2.003906 -5.375 -1.671875 -5.8125 C -1.347656 -6.25 -1.140625 -6.769531 -1.046875 -7.375 C -0.941406 -7.988281 -0.976562 -8.554688 -1.15625 -9.078125 C -1.34375 -9.597656 -1.617188 -10.054688 -1.984375 -10.453125 C -2.359375 -10.847656 -2.789062 -11.175781 -3.28125 -11.4375 C -3.78125 -11.695312 -4.304688 -11.867188 -4.859375 -11.953125 C -5.429688 -12.046875 -5.992188 -12.039062 -6.546875 -11.9375 C -7.109375 -11.84375 -7.625 -11.664062 -8.09375 -11.40625 C -8.5625 -11.144531 -8.953125 -10.789062 -9.265625 -10.34375 C -9.578125 -9.90625 -9.785156 -9.390625 -9.890625 -8.796875 C -9.984375 -8.179688 -9.941406 -7.609375 -9.765625 -7.078125 C -9.597656 -6.554688 -9.332031 -6.101562 -8.96875 -5.71875 C -8.601562 -5.332031 -8.164062 -5.007812 -7.65625 -4.75 C -7.15625 -4.488281 -6.632812 -4.316406 -6.09375 -4.234375 Z M -6.09375 -4.234375 "/></g></g></g><g fill="#195190" fill-opacity="1"><g transform="translate(312.693771, 204.034647)"><g><path d="M -2.734375 -0.6875 C -2.617188 -0.875 -2.484375 -1.171875 -2.328125 -1.578125 C -2.179688 -1.992188 -2.113281 -2.472656 -2.125 -3.015625 C -2.125 -3.546875 -2.21875 -3.96875 -2.40625 -4.28125 C -2.59375 -4.59375 -2.875 -4.828125 -3.25 -4.984375 C -3.625 -5.140625 -4.09375 -5.238281 -4.65625 -5.28125 C -5.21875 -5.332031 -5.875 -5.351562 -6.625 -5.34375 L -13.421875 -5.28125 L -13.453125 -7.890625 L -6.65625 -7.953125 C -5.632812 -7.960938 -4.703125 -7.914062 -3.859375 -7.8125 C -3.023438 -7.71875 -2.3125 -7.5 -1.71875 -7.15625 C -1.125 -6.820312 -0.660156 -6.328125 -0.328125 -5.671875 C -0.00390625 -5.015625 0.160156 -4.132812 0.171875 -3.03125 C 0.179688 -1.90625 -0.0820312 -0.9375 -0.625 -0.125 Z M -2.734375 -0.6875 "/></g></g></g><g fill="#195190" fill-opacity="1"><g transform="translate(311.950532, 186.212547)"><g><path d="M -4 -10.171875 L -1.75 -10.546875 L -0.234375 -1.375 L -13.421875 0.8125 L -14.90625 -8.1875 L -12.65625 -8.5625 L -11.59375 -2.140625 L -8.421875 -2.671875 L -9.34375 -8.21875 L -7.265625 -8.5625 L -6.34375 -3.015625 L -2.90625 -3.578125 Z M -4 -10.171875 "/></g></g></g><g fill="#195190" fill-opacity="1"><g transform="translate(308.011093, 166.584444)"><g><path d="M -6.59375 1.6875 C -7.363281 1.957031 -8.175781 2.082031 -9.03125 2.0625 C -9.882812 2.050781 -10.695312 1.878906 -11.46875 1.546875 C -12.25 1.210938 -12.957031 0.726562 -13.59375 0.09375 C -14.226562 -0.539062 -14.71875 -1.347656 -15.0625 -2.328125 C -15.476562 -3.503906 -15.578125 -4.601562 -15.359375 -5.625 C -15.140625 -6.644531 -14.691406 -7.507812 -14.015625 -8.21875 L -12.0625 -6.796875 C -12.363281 -6.503906 -12.59375 -6.195312 -12.75 -5.875 C -12.90625 -5.550781 -13.007812 -5.226562 -13.0625 -4.90625 C -13.113281 -4.582031 -13.117188 -4.257812 -13.078125 -3.9375 C -13.046875 -3.625 -12.976562 -3.328125 -12.875 -3.046875 C -12.65625 -2.421875 -12.34375 -1.921875 -11.9375 -1.546875 C -11.53125 -1.171875 -11.070312 -0.90625 -10.5625 -0.75 C -10.050781 -0.59375 -9.519531 -0.519531 -8.96875 -0.53125 C -8.414062 -0.550781 -7.890625 -0.648438 -7.390625 -0.828125 C -6.835938 -1.015625 -6.332031 -1.285156 -5.875 -1.640625 C -5.425781 -2.003906 -5.0625 -2.421875 -4.78125 -2.890625 C -4.5 -3.359375 -4.320312 -3.863281 -4.25 -4.40625 C -4.175781 -4.945312 -4.234375 -5.484375 -4.421875 -6.015625 C -4.515625 -6.304688 -4.648438 -6.59375 -4.828125 -6.875 C -5.003906 -7.15625 -5.21875 -7.40625 -5.46875 -7.625 C -5.726562 -7.851562 -6.019531 -8.046875 -6.34375 -8.203125 C -6.675781 -8.359375 -7.035156 -8.445312 -7.421875 -8.46875 L -6.96875 -10.875 C -6.425781 -10.84375 -5.90625 -10.703125 -5.40625 -10.453125 C -4.914062 -10.203125 -4.460938 -9.890625 -4.046875 -9.515625 C -3.640625 -9.140625 -3.273438 -8.703125 -2.953125 -8.203125 C -2.640625 -7.710938 -2.394531 -7.210938 -2.21875 -6.703125 C -1.90625 -5.804688 -1.804688 -4.914062 -1.921875 -4.03125 C -2.046875 -3.15625 -2.316406 -2.335938 -2.734375 -1.578125 C -3.160156 -0.828125 -3.707031 -0.164062 -4.375 0.40625 C -5.039062 0.976562 -5.78125 1.40625 -6.59375 1.6875 Z M -6.59375 1.6875 "/></g></g></g><g fill="#195190" fill-opacity="1"><g transform="translate(300.124465, 146.447716)"><g><path d="M -15.25 -4.546875 L -13.15625 -0.8125 L -3.46875 -6.21875 L -2.21875 -3.96875 L -11.90625 1.4375 L -9.8125 5.171875 L -11.8125 6.28125 L -17.25 -3.4375 Z M -15.25 -4.546875 "/></g></g></g><g fill="#195190" fill-opacity="1"><g transform="translate(85.766521, 218.491867)"><g><path d="M 16.671875 -1.421875 L 22.375 -2.859375 L 22.375 -64.28125 L 11.421875 -64.28125 C 11.421875 -60.40625 10.375 -56.691406 8.28125 -53.140625 C 7.394531 -51.679688 6.378906 -50.472656 5.234375 -49.515625 L 2.375 -49.515625 L 2.375 -66.671875 L 58.09375 -66.671875 L 58.09375 -49.515625 L 55.234375 -49.515625 C 54.023438 -50.472656 52.976562 -51.679688 52.09375 -53.140625 C 50.0625 -56.566406 49.046875 -60.28125 49.046875 -64.28125 L 38.09375 -64.28125 L 38.09375 -2.859375 L 43.8125 -1.421875 L 43.8125 0 L 16.671875 0 Z M 16.671875 -1.421875 "/></g></g></g><g fill="#195190" fill-opacity="1"><g transform="translate(140.616356, 218.491867)"><g><path d="M 37.625 1.421875 C 28.21875 1.421875 21.101562 -0.78125 16.28125 -5.1875 C 11.457031 -9.601562 9.046875 -15.8125 9.046875 -23.8125 L 9.046875 -63.8125 L 3.328125 -65.234375 L 3.328125 -66.671875 L 30.46875 -66.671875 L 30.46875 -65.234375 L 24.765625 -63.8125 L 24.765625 -23.8125 C 24.765625 -15.613281 26.03125 -9.753906 28.5625 -6.234375 C 31.101562 -2.710938 34.753906 -0.953125 39.515625 -0.953125 C 42.441406 -0.953125 45.222656 -1.890625 47.859375 -3.765625 C 50.492188 -5.640625 52.617188 -8.304688 54.234375 -11.765625 C 55.859375 -15.222656 56.671875 -19.238281 56.671875 -23.8125 L 56.671875 -62.375 L 49.046875 -65.234375 L 49.046875 -66.671875 L 67.140625 -66.671875 L 67.140625 -65.234375 L 59.515625 -62.375 L 59.515625 -23.8125 C 59.515625 -18.664062 58.5625 -14.1875 56.65625 -10.375 C 54.757812 -6.570312 52.160156 -3.65625 48.859375 -1.625 C 45.554688 0.40625 41.8125 1.421875 37.625 1.421875 Z M 37.625 1.421875 "/></g></g></g><g fill="#195190" fill-opacity="1"><g transform="translate(202.608185, 218.491867)"><g><path d="M 4.765625 -1.421875 L 10.46875 -2.859375 L 10.46875 -63.8125 L 4.765625 -65.234375 L 4.765625 -66.671875 L 31.421875 -66.671875 C 41.960938 -66.671875 49.519531 -64.9375 54.09375 -61.46875 C 58.664062 -58.007812 60.953125 -52.914062 60.953125 -46.1875 C 60.953125 -39.457031 58.664062 -34.363281 54.09375 -30.90625 C 49.519531 -27.445312 41.960938 -25.71875 31.421875 -25.71875 L 26.1875 -25.71875 L 26.1875 -2.859375 L 31.90625 -1.421875 L 31.90625 0 L 4.765625 0 Z M 31.421875 -28.09375 C 35.421875 -28.09375 38.644531 -29.613281 41.09375 -32.65625 C 43.539062 -35.707031 44.765625 -40.21875 44.765625 -46.1875 C 44.765625 -52.09375 43.539062 -56.582031 41.09375 -59.65625 C 38.644531 -62.738281 35.421875 -64.28125 31.421875 -64.28125 L 26.1875 -64.28125 L 26.1875 -28.09375 Z M 31.421875 -28.09375 "/></g></g></g><g clip-path="url(#c5a7cfb377)"><path fill="#000000" d="M 250.398438 211.566406 C 246.671875 211.566406 243.648438 214.589844 243.648438 218.316406 C 243.648438 222.046875 246.671875 225.066406 250.398438 225.066406 C 254.128906 225.066406 257.148438 222.046875 257.148438 218.316406 C 257.148438 214.589844 254.128906 211.566406 250.398438 211.566406 " fill-opacity="1" fill-rule="nonzero"/></g></svg>