<svg id="visual" viewBox="0 0 960 200" width="960" height="200" xmlns="http://www.w3.org/2000/svg" xmlns:xlink="http://www.w3.org/1999/xlink" version="1.1"><path d="M0 77L8 71.7C16 66.3 32 55.7 48 60.3C64 65 80 85 96 93.3C112 101.7 128 98.3 144 97.7C160 97 176 99 192 95C208 91 224 81 240 69.3C256 57.7 272 44.3 288 37.7C304 31 320 31 336 46.3C352 61.7 368 92.3 384 104C400 115.7 416 108.3 432 107C448 105.7 464 110.3 480 113.3C496 116.3 512 117.7 528 105.7C544 93.7 560 68.3 576 71.3C592 74.3 608 105.7 624 109C640 112.3 656 87.7 672 82.3C688 77 704 91 720 94C736 97 752 89 768 76.3C784 63.7 800 46.3 816 53C832 59.7 848 90.3 864 105.7C880 121 896 121 912 113C928 105 944 89 952 81L960 73L960 0L952 0C944 0 928 0 912 0C896 0 880 0 864 0C848 0 832 0 816 0C800 0 784 0 768 0C752 0 736 0 720 0C704 0 688 0 672 0C656 0 640 0 624 0C608 0 592 0 576 0C560 0 544 0 528 0C512 0 496 0 480 0C464 0 448 0 432 0C416 0 400 0 384 0C368 0 352 0 336 0C320 0 304 0 288 0C272 0 256 0 240 0C224 0 208 0 192 0C176 0 160 0 144 0C128 0 112 0 96 0C80 0 64 0 48 0C32 0 16 0 8 0L0 0Z" fill="#195190"></path><path d="M0 103L8 99.3C16 95.7 32 88.3 48 94.3C64 100.3 80 119.7 96 127C112 134.3 128 129.7 144 131.7C160 133.7 176 142.3 192 139.7C208 137 224 123 240 115C256 107 272 105 288 105C304 105 320 107 336 114C352 121 368 133 384 140C400 147 416 149 432 149C448 149 464 147 480 147.7C496 148.3 512 151.7 528 143C544 134.3 560 113.7 576 113.3C592 113 608 133 624 136.3C640 139.7 656 126.3 672 121C688 115.7 704 118.3 720 122.7C736 127 752 133 768 123.7C784 114.3 800 89.7 816 90.3C832 91 848 117 864 133C880 149 896 155 912 150.7C928 146.3 944 131.7 952 124.3L960 117L960 71L952 79C944 87 928 103 912 111C896 119 880 119 864 103.7C848 88.3 832 57.7 816 51C800 44.3 784 61.7 768 74.3C752 87 736 95 720 92C704 89 688 75 672 80.3C656 85.7 640 110.3 624 107C608 103.7 592 72.3 576 69.3C560 66.3 544 91.7 528 103.7C512 115.7 496 114.3 480 111.3C464 108.3 448 103.7 432 105C416 106.3 400 113.7 384 102C368 90.3 352 59.7 336 44.3C320 29 304 29 288 35.7C272 42.3 256 55.7 240 67.3C224 79 208 89 192 93C176 97 160 95 144 95.7C128 96.3 112 99.7 96 91.3C80 83 64 63 48 58.3C32 53.7 16 64.3 8 69.7L0 75Z" fill="#fe5f8b"></path><path d="M0 201L8 201C16 201 32 201 48 201C64 201 80 201 96 201C112 201 128 201 144 201C160 201 176 201 192 201C208 201 224 201 240 201C256 201 272 201 288 201C304 201 320 201 336 201C352 201 368 201 384 201C400 201 416 201 432 201C448 201 464 201 480 201C496 201 512 201 528 201C544 201 560 201 576 201C592 201 608 201 624 201C640 201 656 201 672 201C688 201 704 201 720 201C736 201 752 201 768 201C784 201 800 201 816 201C832 201 848 201 864 201C880 201 896 201 912 201C928 201 944 201 952 201L960 201L960 115L952 122.3C944 129.7 928 144.3 912 148.7C896 153 880 147 864 131C848 115 832 89 816 88.3C800 87.7 784 112.3 768 121.7C752 131 736 125 720 120.7C704 116.3 688 113.7 672 119C656 124.3 640 137.7 624 134.3C608 131 592 111 576 111.3C560 111.7 544 132.3 528 141C512 149.7 496 146.3 480 145.7C464 145 448 147 432 147C416 147 400 145 384 138C368 131 352 119 336 112C320 105 304 103 288 103C272 103 256 105 240 113C224 121 208 135 192 137.7C176 140.3 160 131.7 144 129.7C128 127.7 112 132.3 96 125C80 117.7 64 98.3 48 92.3C32 86.3 16 93.7 8 97.3L0 101Z" fill="#fee715"></path></svg>