<svg id="visual" viewBox="0 0 960 200" width="960" height="200" xmlns="http://www.w3.org/2000/svg" xmlns:xlink="http://www.w3.org/1999/xlink" version="1.1"><rect x="0" y="0" width="960" height="200" fill="#195190"></rect><path d="M0 63L7.7 64.8C15.3 66.7 30.7 70.3 45.8 70.8C61 71.3 76 68.7 91.2 66.3C106.3 64 121.7 62 137 66.8C152.3 71.7 167.7 83.3 183 83.3C198.3 83.3 213.7 71.7 228.8 72.7C244 73.7 259 87.3 274.2 88.2C289.3 89 304.7 77 320 76.8C335.3 76.7 350.7 88.3 365.8 90.2C381 92 396 84 411.2 74.8C426.3 65.7 441.7 55.3 457 56.2C472.3 57 487.7 69 503 74.2C518.3 79.3 533.7 77.7 548.8 75C564 72.3 579 68.7 594.2 73.3C609.3 78 624.7 91 640 90.7C655.3 90.3 670.7 76.7 685.8 77.2C701 77.7 716 92.3 731.2 93.5C746.3 94.7 761.7 82.3 777 78.3C792.3 74.3 807.7 78.7 823 83.5C838.3 88.3 853.7 93.7 868.8 89.5C884 85.3 899 71.7 914.2 70.5C929.3 69.3 944.7 80.7 952.3 86.3L960 92L960 0L952.3 0C944.7 0 929.3 0 914.2 0C899 0 884 0 868.8 0C853.7 0 838.3 0 823 0C807.7 0 792.3 0 777 0C761.7 0 746.3 0 731.2 0C716 0 701 0 685.8 0C670.7 0 655.3 0 640 0C624.7 0 609.3 0 594.2 0C579 0 564 0 548.8 0C533.7 0 518.3 0 503 0C487.7 0 472.3 0 457 0C441.7 0 426.3 0 411.2 0C396 0 381 0 365.8 0C350.7 0 335.3 0 320 0C304.7 0 289.3 0 274.2 0C259 0 244 0 228.8 0C213.7 0 198.3 0 183 0C167.7 0 152.3 0 137 0C121.7 0 106.3 0 91.2 0C76 0 61 0 45.8 0C30.7 0 15.3 0 7.7 0L0 0Z" fill="#b1b1b3"></path><path d="M0 36L7.7 36.7C15.3 37.3 30.7 38.7 45.8 42C61 45.3 76 50.7 91.2 56.5C106.3 62.3 121.7 68.7 137 67.7C152.3 66.7 167.7 58.3 183 56.7C198.3 55 213.7 60 228.8 62.7C244 65.3 259 65.7 274.2 69C289.3 72.3 304.7 78.7 320 73C335.3 67.3 350.7 49.7 365.8 41C381 32.3 396 32.7 411.2 41.8C426.3 51 441.7 69 457 73C472.3 77 487.7 67 503 63.2C518.3 59.3 533.7 61.7 548.8 57.7C564 53.7 579 43.3 594.2 44.2C609.3 45 624.7 57 640 58.2C655.3 59.3 670.7 49.7 685.8 45.7C701 41.7 716 43.3 731.2 45.8C746.3 48.3 761.7 51.7 777 50.7C792.3 49.7 807.7 44.3 823 47C838.3 49.7 853.7 60.3 868.8 62.8C884 65.3 899 59.7 914.2 54.7C929.3 49.7 944.7 45.3 952.3 43.2L960 41L960 0L952.3 0C944.7 0 929.3 0 914.2 0C899 0 884 0 868.8 0C853.7 0 838.3 0 823 0C807.7 0 792.3 0 777 0C761.7 0 746.3 0 731.2 0C716 0 701 0 685.8 0C670.7 0 655.3 0 640 0C624.7 0 609.3 0 594.2 0C579 0 564 0 548.8 0C533.7 0 518.3 0 503 0C487.7 0 472.3 0 457 0C441.7 0 426.3 0 411.2 0C396 0 381 0 365.8 0C350.7 0 335.3 0 320 0C304.7 0 289.3 0 274.2 0C259 0 244 0 228.8 0C213.7 0 198.3 0 183 0C167.7 0 152.3 0 137 0C121.7 0 106.3 0 91.2 0C76 0 61 0 45.8 0C30.7 0 15.3 0 7.7 0L0 0Z" fill="#ffc35b"></path><path d="M0 34L7.7 31.8C15.3 29.7 30.7 25.3 45.8 24.5C61 23.7 76 26.3 91.2 29.3C106.3 32.3 121.7 35.7 137 36C152.3 36.3 167.7 33.7 183 30.7C198.3 27.7 213.7 24.3 228.8 25.7C244 27 259 33 274.2 37.7C289.3 42.3 304.7 45.7 320 46.2C335.3 46.7 350.7 44.3 365.8 41.5C381 38.7 396 35.3 411.2 32.7C426.3 30 441.7 28 457 31.2C472.3 34.3 487.7 42.7 503 42.2C518.3 41.7 533.7 32.3 548.8 32.5C564 32.7 579 42.3 594.2 45.3C609.3 48.3 624.7 44.7 640 38.8C655.3 33 670.7 25 685.8 21.8C701 18.7 716 20.3 731.2 28.2C746.3 36 761.7 50 777 52.3C792.3 54.7 807.7 45.3 823 39.2C838.3 33 853.7 30 868.8 30.2C884 30.3 899 33.7 914.2 33.3C929.3 33 944.7 29 952.3 27L960 25L960 0L952.3 0C944.7 0 929.3 0 914.2 0C899 0 884 0 868.8 0C853.7 0 838.3 0 823 0C807.7 0 792.3 0 777 0C761.7 0 746.3 0 731.2 0C716 0 701 0 685.8 0C670.7 0 655.3 0 640 0C624.7 0 609.3 0 594.2 0C579 0 564 0 548.8 0C533.7 0 518.3 0 503 0C487.7 0 472.3 0 457 0C441.7 0 426.3 0 411.2 0C396 0 381 0 365.8 0C350.7 0 335.3 0 320 0C304.7 0 289.3 0 274.2 0C259 0 244 0 228.8 0C213.7 0 198.3 0 183 0C167.7 0 152.3 0 137 0C121.7 0 106.3 0 91.2 0C76 0 61 0 45.8 0C30.7 0 15.3 0 7.7 0L0 0Z" fill="#ffc35b"></path><path d="M0 11L7.7 10.3C15.3 9.7 30.7 8.3 45.8 12.5C61 16.7 76 26.3 91.2 28.8C106.3 31.3 121.7 26.7 137 24C152.3 21.3 167.7 20.7 183 23.3C198.3 26 213.7 32 228.8 30.3C244 28.7 259 19.3 274.2 16.3C289.3 13.3 304.7 16.7 320 19.8C335.3 23 350.7 26 365.8 28.5C381 31 396 33 411.2 30.5C426.3 28 441.7 21 457 17.5C472.3 14 487.7 14 503 15.2C518.3 16.3 533.7 18.7 548.8 20C564 21.3 579 21.7 594.2 23.7C609.3 25.7 624.7 29.3 640 27.3C655.3 25.3 670.7 17.7 685.8 13.5C701 9.3 716 8.7 731.2 13.3C746.3 18 761.7 28 777 31.2C792.3 34.3 807.7 30.7 823 28.2C838.3 25.7 853.7 24.3 868.8 24.3C884 24.3 899 25.7 914.2 28.5C929.3 31.3 944.7 35.7 952.3 37.8L960 40L960 0L952.3 0C944.7 0 929.3 0 914.2 0C899 0 884 0 868.8 0C853.7 0 838.3 0 823 0C807.7 0 792.3 0 777 0C761.7 0 746.3 0 731.2 0C716 0 701 0 685.8 0C670.7 0 655.3 0 640 0C624.7 0 609.3 0 594.2 0C579 0 564 0 548.8 0C533.7 0 518.3 0 503 0C487.7 0 472.3 0 457 0C441.7 0 426.3 0 411.2 0C396 0 381 0 365.8 0C350.7 0 335.3 0 320 0C304.7 0 289.3 0 274.2 0C259 0 244 0 228.8 0C213.7 0 198.3 0 183 0C167.7 0 152.3 0 137 0C121.7 0 106.3 0 91.2 0C76 0 61 0 45.8 0C30.7 0 15.3 0 7.7 0L0 0Z" fill="#b1b1b3"></path></svg>